Cover: 
http://i2.listal.com/image/3811007/600full-lockout-(unrated)-%5Bblu--ray%5D-cover.jpg


Format : AVI
Format/Info : Audio Video Interleave
File size : 1.46 GiB
Duration : 1h 33mn
Overall bit rate : 2 240 Kbps
Writing application : VirtualDubMod 1.5.10.2 (build 2540/release)
Writing library : VirtualDubMod build 2540/release

Video
ID : 0
Format : MPEG-4 Visual
Format profile : Advanced Simple@L5
Format settings, BVOP : 2
Format settings, QPel : No
Format settings, GMC : No warppoints
Format settings, Matrix : Default (H.263)
Muxing mode : Packed bitstream
Codec ID : XVID
Codec ID/Hint : XviD
Duration : 1h 33mn
Bit rate : 1 847 Kbps
Width : 720 pixels
Height : 304 pixels
Display aspect ratio : 2.35:1
Frame rate : 23.976 fps
Color space : YUV
Chroma subsampling : 4:2:0
Bit depth : 8 bits
Scan type : Progressive
Compression mode : Lossy
Bits/(Pixel*Frame) : 0.352
Stream size : 1.21 GiB (82%)
Writing library : XviD 64

Audio
ID : 1
Format : AC-3
Format/Info : Audio Coding 3
Mode extension : CM (complete main)
Format settings, Endianness : Big
Codec ID : 2000
Duration : 1h 33mn
Bit rate mode : Constant
Bit rate : 384 Kbps
Channel(s) : 6 channels
Channel positions : Front: L C R, Side: L R, LFE
Sampling rate : 48.0 KHz
Bit depth : 16 bits
Compression mode : Lossy
Stream size : 257 MiB (17%)
Alignment : Split accross interleaves
Interleave, duration : 42 ms (1.00 video frame)
Interleave, preload duration : 500 ms


IMDB: http://www.imdb.com/title/tt1592525/


Ratings: 6.2/10 from 5,376 users Metascore: 48/100 
Reviews: 75 user | 168 critic | 32 from Metacritic.com

A man wrongly convicted of conspiracy to commit espionage against the U.S. is offered his freedom if he can rescue the president's daughter from an outer space prison taken over by violent inmates.

Directors:
James Mather, Stephen St. Leger
Writers:
Stephen St. Leger (screenplay), James Mather (screenplay), and 2 more credits ┬╗
Stars:
Guy Pearce, Maggie Grace and Peter Stormare 


Source Used

Movie/HD/Bluray	Lockout UNRATED 720p BluRay X264-BLOW ......Thanks

Enjoy


SCREENS: 
http://img843.imageshack.us/img843/9696/vlcsnap2012062907h05m50.png 
http://img651.imageshack.us/img651/2138/vlcsnap2012062907h06m14.png 
http://img820.imageshack.us/img820/871/vlcsnap2012062907h05m22.png